<mxfile host="app.diagrams.net" modified="2021-11-19T19:55:25.815Z" agent="5.0 (Windows NT 10.0; Win64; x64) AppleWebKit/537.36 (KHTML, like Gecko) Chrome/95.0.4638.69 Safari/537.36" etag="0AinZD0fYGK9Vu8Q4WqC" version="15.8.2" type="github">
  <diagram id="kOsPYZ9uBFAMnIBQ-ULK" name="Page-1">
    <mxGraphModel dx="2489" dy="741" grid="1" gridSize="10" guides="1" tooltips="1" connect="1" arrows="1" fold="1" page="1" pageScale="1" pageWidth="827" pageHeight="1169" math="0" shadow="0">
      <root>
        <mxCell id="0" />
        <mxCell id="1" parent="0" />
        <mxCell id="oxakEMZMlEvCSRAWe6NK-14" style="edgeStyle=orthogonalEdgeStyle;rounded=0;orthogonalLoop=1;jettySize=auto;html=1;exitX=1;exitY=0;exitDx=0;exitDy=52.5;exitPerimeter=0;shape=flexArrow;" parent="1" source="oxakEMZMlEvCSRAWe6NK-3" target="oxakEMZMlEvCSRAWe6NK-8" edge="1">
          <mxGeometry relative="1" as="geometry" />
        </mxCell>
        <mxCell id="oxakEMZMlEvCSRAWe6NK-3" value="Database&lt;br&gt;SQL SERVER&lt;br&gt;MSBRCAMPCP3230&lt;br&gt;CBS_CSSP" style="shape=cylinder3;whiteSpace=wrap;html=1;boundedLbl=1;backgroundOutline=1;size=15;fillColor=#E6E6E6;" parent="1" vertex="1">
          <mxGeometry x="-200" y="363.93" width="130" height="126.07" as="geometry" />
        </mxCell>
        <mxCell id="oxakEMZMlEvCSRAWe6NK-9" style="edgeStyle=orthogonalEdgeStyle;rounded=0;orthogonalLoop=1;jettySize=auto;html=1;exitX=1;exitY=0.5;exitDx=0;exitDy=0;exitPerimeter=0;" parent="1" source="oxakEMZMlEvCSRAWe6NK-4" target="oxakEMZMlEvCSRAWe6NK-7" edge="1">
          <mxGeometry relative="1" as="geometry" />
        </mxCell>
        <mxCell id="oxakEMZMlEvCSRAWe6NK-4" value="Click Once Installation&lt;br&gt;CSSP Network Folder" style="sketch=0;aspect=fixed;pointerEvents=1;shadow=0;dashed=0;html=1;strokeColor=none;labelPosition=center;verticalLabelPosition=bottom;verticalAlign=top;align=center;fillColor=#B3B3B3;shape=mxgraph.mscae.enterprise.shared_folder" parent="1" vertex="1">
          <mxGeometry x="-50" y="80" width="30" height="34.88" as="geometry" />
        </mxCell>
        <mxCell id="oxakEMZMlEvCSRAWe6NK-5" value="" style="sketch=0;outlineConnect=0;fontColor=#232F3E;gradientColor=none;fillColor=#232F3D;strokeColor=none;dashed=0;verticalLabelPosition=bottom;verticalAlign=top;align=center;html=1;fontSize=12;fontStyle=0;aspect=fixed;pointerEvents=1;shape=mxgraph.aws4.users;" parent="1" vertex="1">
          <mxGeometry x="150" y="300" width="78" height="78" as="geometry" />
        </mxCell>
        <mxCell id="oxakEMZMlEvCSRAWe6NK-7" value="PRM&lt;br&gt;Windows Form Desktop App&lt;br&gt;.Net C#" style="image;html=1;image=img/lib/clip_art/computers/Virtual_Application_128x128.png" parent="1" vertex="1">
          <mxGeometry x="59" y="156.93" width="80" height="80" as="geometry" />
        </mxCell>
        <mxCell id="oxakEMZMlEvCSRAWe6NK-8" value="Power BI&lt;br&gt;Reports&lt;br&gt;" style="image;html=1;image=img/lib/clip_art/finance/Pie_Chart_128x128.png" parent="1" vertex="1">
          <mxGeometry x="70" y="378" width="80" height="75" as="geometry" />
        </mxCell>
        <mxCell id="oxakEMZMlEvCSRAWe6NK-23" style="edgeStyle=orthogonalEdgeStyle;shape=flexArrow;rounded=0;orthogonalLoop=1;jettySize=auto;html=1;" parent="1" source="oxakEMZMlEvCSRAWe6NK-15" target="oxakEMZMlEvCSRAWe6NK-3" edge="1">
          <mxGeometry relative="1" as="geometry" />
        </mxCell>
        <mxCell id="oxakEMZMlEvCSRAWe6NK-15" value="ETL Alteryx Process&lt;br&gt;*PR&lt;br&gt;*PO&lt;br&gt;*PO Confirmation" style="verticalLabelPosition=bottom;sketch=0;aspect=fixed;html=1;verticalAlign=top;strokeColor=none;align=center;outlineConnect=0;shape=mxgraph.citrix.process;fillColor=#B3B3B3;" parent="1" vertex="1">
          <mxGeometry x="-369" y="395.93" width="52" height="62" as="geometry" />
        </mxCell>
        <mxCell id="oxakEMZMlEvCSRAWe6NK-17" style="edgeStyle=orthogonalEdgeStyle;rounded=0;orthogonalLoop=1;jettySize=auto;html=1;exitX=1;exitY=0.5;exitDx=0;exitDy=0;exitPerimeter=0;shape=flexArrow;" parent="1" source="oxakEMZMlEvCSRAWe6NK-16" target="oxakEMZMlEvCSRAWe6NK-15" edge="1">
          <mxGeometry relative="1" as="geometry" />
        </mxCell>
        <mxCell id="oxakEMZMlEvCSRAWe6NK-16" value="Saved Report&amp;nbsp;&lt;br&gt;Files from ERPs&lt;br&gt;CSSP Network Folder" style="sketch=0;aspect=fixed;pointerEvents=1;shadow=0;dashed=0;html=1;strokeColor=none;labelPosition=center;verticalLabelPosition=bottom;verticalAlign=top;align=center;fillColor=#B3B3B3;shape=mxgraph.mscae.enterprise.shared_folder" parent="1" vertex="1">
          <mxGeometry x="-529" y="403.68" width="40" height="46.51" as="geometry" />
        </mxCell>
        <mxCell id="oxakEMZMlEvCSRAWe6NK-25" style="edgeStyle=orthogonalEdgeStyle;shape=flexArrow;rounded=0;orthogonalLoop=1;jettySize=auto;html=1;entryX=0;entryY=0.5;entryDx=0;entryDy=0;entryPerimeter=0;" parent="1" source="oxakEMZMlEvCSRAWe6NK-24" target="oxakEMZMlEvCSRAWe6NK-16" edge="1">
          <mxGeometry relative="1" as="geometry" />
        </mxCell>
        <mxCell id="oxakEMZMlEvCSRAWe6NK-24" value="manual process of &lt;br&gt;saving ERP report &lt;br&gt;files at network folder&lt;br&gt;(Paula Pires)" style="sketch=0;outlineConnect=0;fontColor=#232F3E;gradientColor=none;fillColor=#232F3D;strokeColor=none;dashed=0;verticalLabelPosition=bottom;verticalAlign=top;align=center;html=1;fontSize=12;fontStyle=0;aspect=fixed;pointerEvents=1;shape=mxgraph.aws4.user;" parent="1" vertex="1">
          <mxGeometry x="-704" y="401.93" width="50" height="50" as="geometry" />
        </mxCell>
        <mxCell id="oxakEMZMlEvCSRAWe6NK-28" value="" style="shape=flexArrow;endArrow=classic;startArrow=classic;html=1;rounded=0;entryX=0;entryY=0.75;entryDx=0;entryDy=0;exitX=1;exitY=0;exitDx=0;exitDy=15;exitPerimeter=0;" parent="1" source="oxakEMZMlEvCSRAWe6NK-3" target="oxakEMZMlEvCSRAWe6NK-7" edge="1">
          <mxGeometry width="100" height="100" relative="1" as="geometry">
            <mxPoint x="-175" y="683.9300000000001" as="sourcePoint" />
            <mxPoint x="-75" y="583.9300000000001" as="targetPoint" />
          </mxGeometry>
        </mxCell>
      </root>
    </mxGraphModel>
  </diagram>
</mxfile>
